# xmcd
#
# Track frame offsets:
#	150
#	20948
#	35062
#	54371
#	66950
#	78394
#	92663
#	106984
#	124046
#	135321
#	155291
#	176726
#
# Disc length: 2589 seconds
#
# Revision: 1
# Processed by: cddbd v1.5.2PL0 Copyright (c) Steve Scherf et al.
# Submitted via: audiograbber 1.83.01
#
DISCID=9c0a1b0c
DTITLE=Matt Woods - If I Was A Fish
DYEAR=2006
DGENRE=Blues
TTITLE0=Tell Me What's The Matter With Papa's Angel Child
TTITLE1=Goin To Brownsville
TTITLE2=Preachin' Blues
TTITLE3=Down In The Bottom
TTITLE4=V8 Ford
TTITLE5=Murder My Woman
TTITLE6=Sugar Groove Avenue
TTITLE7=Country Road Blues
TTITLE8=Your Gonna Need Somebody When You Come To Town
TTITLE9=Fine Champagne
TTITLE10=Hollow Log
TTITLE11=If I Was A Fish
EXTD=
EXTT0=
EXTT1=
EXTT2=
EXTT3=
EXTT4=
EXTT5=
EXTT6=
EXTT7=
EXTT8=
EXTT9=
EXTT10=
EXTT11=
PLAYORDER=
